P3
62 68
255
196 180 162 196 180 162 196 180 162 185 163 140 185 163 140 185 163 140 191 172 148 191 172 148 191 172 148 191 172 148 200 186 164 200 186 164 200 186 164 198 183 159 198 183 159 198 183 159 191 171 146 191 171 146 191 171 146 189 170 148 189 170 148 189 170 148 184 166 144 184 166 144 184 166 144 173 151 129 173 151 129 173 151 129 173 151 129 159 137 115 159 137 115 159 137 115 148 124 107 148 124 107 148 124 107 135 106 93 135 106 93 135 106 93 131 99 85 131 99 85 131 99 85 117 79 63 117 79 63 117 79 63 117 79 63 106 66 48 106 66 48 106 66 48 110 70 51 110 70 51 110 70 51 125 89 73 125 89 73 125 89 73 146 118 105 146 118 105 146 118 105 164 147 135 164 147 135 164 147 135 161 144 134 161 144 134 
196 180 162 196 180 162 196 180 162 185 163 140 185 163 140 185 163 140 191 172 148 191 172 148 191 172 148 191 172 148 200 186 164 200 186 164 200 186 164 198 183 159 198 183 159 198 183 159 191 171 146 191 171 146 191 171 146 189 170 148 189 170 148 189 170 148 184 166 144 184 166 144 184 166 144 173 151 129 173 151 129 173 151 129 173 151 129 159 137 115 159 137 115 159 137 115 148 124 107 148 124 107 148 124 107 135 106 93 135 106 93 135 106 93 131 99 85 131 99 85 131 99 85 117 79 63 117 79 63 117 79 63 117 79 63 106 66 48 106 66 48 106 66 48 110 70 51 110 70 51 110 70 51 125 89 73 125 89 73 125 89 73 146 118 105 146 118 105 146 118 105 164 147 135 164 147 135 164 147 135 161 144 134 161 144 134 
200 186 169 200 186 169 200 186 169 191 172 152 191 172 152 191 172 152 184 163 138 184 163 138 184 163 138 184 163 138 196 178 155 196 178 155 196 178 155 200 185 162 200 185 162 200 185 162 195 176 152 195 176 152 195 176 152 188 167 143 188 167 143 188 167 143 187 167 146 187 167 146 187 167 146 181 159 138 181 159 138 181 159 138 181 159 138 164 138 114 164 138 114 164 138 114 148 121 99 148 121 99 148 121 99 136 110 93 136 110 93 136 110 93 138 111 96 138 111 96 138 111 96 136 107 95 136 107 95 136 107 95 136 107 95 121 87 73 121 87 73 121 87 73 114 75 60 114 75 60 114 75 60 118 80 65 118 80 65 118 80 65 124 90 75 124 90 75 124 90 75 139 112 97 139 112 97 139 112 97 156 137 126 156 137 126 
200 186 169 200 186 169 200 186 169 191 172 152 191 172 152 191 172 152 184 163 138 184 163 138 184 163 138 184 163 138 196 178 155 196 178 155 196 178 155 200 185 162 200 185 162 200 185 162 195 176 152 195 176 152 195 176 152 188 167 143 188 167 143 188 167 143 187 167 146 187 167 146 187 167 146 181 159 138 181 159 138 181 159 138 181 159 138 164 138 114 164 138 114 164 138 114 148 121 99 148 121 99 148 121 99 136 110 93 136 110 93 136 110 93 138 111 96 138 111 96 138 111 96 136 107 95 136 107 95 136 107 95 136 107 95 121 87 73 121 87 73 121 87 73 114 75 60 114 75 60 114 75 60 118 80 65 118 80 65 118 80 65 124 90 75 124 90 75 124 90 75 139 112 97 139 112 97 139 112 97 156 137 126 156 137 126 
200 186 169 200 186 169 200 186 169 191 172 152 191 172 152 191 172 152 184 163 138 184 163 138 184 163 138 184 163 138 196 178 155 196 178 155 196 178 155 200 185 162 200 185 162 200 185 162 195 176 152 195 176 152 195 176 152 188 167 143 188 167 143 188 167 143 187 167 146 187 167 146 187 167 146 181 159 138 181 159 138 181 159 138 181 159 138 164 138 114 164 138 114 164 138 114 148 121 99 148 121 99 148 121 99 136 110 93 136 110 93 136 110 93 138 111 96 138 111 96 138 111 96 136 107 95 136 107 95 136 107 95 136 107 95 121 87 73 121 87 73 121 87 73 114 75 60 114 75 60 114 75 60 118 80 65 118 80 65 118 80 65 124 90 75 124 90 75 124 90 75 139 112 97 139 112 97 139 112 97 156 137 126 156 137 126 
201 187 170 201 187 170 201 187 170 195 182 164 195 182 164 195 182 164 183 164 141 183 164 141 183 164 141 183 164 141 186 167 142 186 167 142 186 167 142 199 183 160 199 183 160 199 183 160 199 182 159 199 182 159 199 182 159 191 171 147 191 171 147 191 171 147 188 167 144 188 167 144 188 167 144 189 170 150 189 170 150 189 170 150 189 170 150 174 152 129 174 152 129 174 152 129 154 128 103 154 128 103 154 128 103 131 101 81 131 101 81 131 101 81 125 94 75 125 94 75 125 94 75 136 106 92 136 106 92 136 106 92 136 106 92 140 111 101 140 111 101 140 111 101 137 106 95 137 106 95 137 106 95 128 94 83 128 94 83 128 94 83 116 80 66 116 80 66 116 80 66 113 76 61 113 76 61 113 76 61 131 101 87 131 101 87 
201 187 170 201 187 170 201 187 170 195 182 164 195 182 164 195 182 164 183 164 141 183 164 141 183 164 141 183 164 141 186 167 142 186 167 142 186 167 142 199 183 160 199 183 160 199 183 160 199 182 159 199 182 159 199 182 159 191 171 147 191 171 147 191 171 147 188 167 144 188 167 144 188 167 144 189 170 150 189 170 150 189 170 150 189 170 150 174 152 129 174 152 129 174 152 129 154 128 103 154 128 103 154 128 103 131 101 81 131 101 81 131 101 81 125 94 75 125 94 75 125 94 75 136 106 92 136 106 92 136 106 92 136 106 92 140 111 101 140 111 101 140 111 101 137 106 95 137 106 95 137 106 95 128 94 83 128 94 83 128 94 83 116 80 66 116 80 66 116 80 66 113 76 61 113 76 61 113 76 61 131 101 87 131 101 87 
201 187 170 201 187 170 201 187 170 195 182 164 195 182 164 195 182 164 183 164 141 183 164 141 183 164 141 183 164 141 186 167 142 186 167 142 186 167 142 199 183 160 199 183 160 199 183 160 199 182 159 199 182 159 199 182 159 191 171 147 191 171 147 191 171 147 188 167 144 188 167 144 188 167 144 189 170 150 189 170 150 189 170 150 189 170 150 174 152 129 174 152 129 174 152 129 154 128 103 154 128 103 154 128 103 131 101 81 131 101 81 131 101 81 125 94 75 125 94 75 125 94 75 136 106 92 136 106 92 136 106 92 136 106 92 140 111 101 140 111 101 140 111 101 137 106 95 137 106 95 137 106 95 128 94 83 128 94 83 128 94 83 116 80 66 116 80 66 116 80 66 113 76 61 113 76 61 113 76 61 131 101 87 131 101 87 
200 186 168 200 186 168 200 186 168 199 187 170 199 187 170 199 187 170 190 174 155 190 174 155 190 174 155 190 174 155 182 163 140 182 163 140 182 163 140 194 178 154 194 178 154 194 178 154 201 185 163 201 185 163 201 185 163 196 177 155 196 177 155 196 177 155 189 168 145 189 168 145 189 168 145 190 171 151 190 171 151 190 171 151 190 171 151 182 162 142 182 162 142 182 162 142 164 139 115 164 139 115 164 139 115 143 114 93 143 114 93 143 114 93 131 98 79 131 98 79 131 98 79 130 95 77 130 95 77 130 95 77 130 95 77 132 100 84 132 100 84 132 100 84 136 104 92 136 104 92 136 104 92 135 106 97 135 106 97 135 106 97 130 99 88 130 99 88 130 99 88 121 84 72 121 84 72 121 84 72 119 82 68 119 82 68 
200 186 168 200 186 168 200 186 168 199 187 170 199 187 170 199 187 170 190 174 155 190 174 155 190 174 155 190 174 155 182 163 140 182 163 140 182 163 140 194 178 154 194 178 154 194 178 154 201 185 163 201 185 163 201 185 163 196 177 155 196 177 155 196 177 155 189 168 145 189 168 145 189 168 145 190 171 151 190 171 151 190 171 151 190 171 151 182 162 142 182 162 142 182 162 142 164 139 115 164 139 115 164 139 115 143 114 93 143 114 93 143 114 93 131 98 79 131 98 79 131 98 79 130 95 77 130 95 77 130 95 77 130 95 77 132 100 84 132 100 84 132 100 84 136 104 92 136 104 92 136 104 92 135 106 97 135 106 97 135 106 97 130 99 88 130 99 88 130 99 88 121 84 72 121 84 72 121 84 72 119 82 68 119 82 68 
200 186 168 200 186 168 200 186 168 199 187 170 199 187 170 199 187 170 190 174 155 190 174 155 190 174 155 190 174 155 182 163 140 182 163 140 182 163 140 194 178 154 194 178 154 194 178 154 201 185 163 201 185 163 201 185 163 196 177 155 196 177 155 196 177 155 189 168 145 189 168 145 189 168 145 190 171 151 190 171 151 190 171 151 190 171 151 182 162 142 182 162 142 182 162 142 164 139 115 164 139 115 164 139 115 143 114 93 143 114 93 143 114 93 131 98 79 131 98 79 131 98 79 130 95 77 130 95 77 130 95 77 130 95 77 132 100 84 132 100 84 132 100 84 136 104 92 136 104 92 136 104 92 135 106 97 135 106 97 135 106 97 130 99 88 130 99 88 130 99 88 121 84 72 121 84 72 121 84 72 119 82 68 119 82 68 
199 184 164 199 184 164 199 184 164 200 188 170 200 188 170 200 188 170 197 184 165 197 184 165 197 184 165 197 184 165 185 168 147 185 168 147 185 168 147 188 171 148 188 171 148 188 171 148 201 185 163 201 185 163 201 185 163 201 185 161 201 185 161 201 185 161 193 173 148 193 173 148 193 173 148 187 167 145 187 167 145 187 167 145 187 167 145 187 169 149 187 169 149 187 169 149 174 152 128 174 152 128 174 152 128 160 133 110 160 133 110 160 133 110 142 113 91 142 113 91 142 113 91 129 95 76 129 95 76 129 95 76 129 95 76 121 84 66 121 84 66 121 84 66 123 87 69 123 87 69 123 87 69 126 92 78 126 92 78 126 92 78 127 93 80 127 93 80 127 93 80 133 101 90 133 101 90 133 101 90 130 95 84 130 95 84 
199 184 164 199 184 164 199 184 164 200 188 170 200 188 170 200 188 170 197 184 165 197 184 165 197 184 165 197 184 165 185 168 147 185 168 147 185 168 147 188 171 148 188 171 148 188 171 148 201 185 163 201 185 163 201 185 163 201 185 161 201 185 161 201 185 161 193 173 148 193 173 148 193 173 148 187 167 145 187 167 145 187 167 145 187 167 145 187 169 149 187 169 149 187 169 149 174 152 128 174 152 128 174 152 128 160 133 110 160 133 110 160 133 110 142 113 91 142 113 91 142 113 91 129 95 76 129 95 76 129 95 76 129 95 76 121 84 66 121 84 66 121 84 66 123 87 69 123 87 69 123 87 69 126 92 78 126 92 78 126 92 78 127 93 80 127 93 80 127 93 80 133 101 90 133 101 90 133 101 90 130 95 84 130 95 84 
199 184 164 199 184 164 199 184 164 200 188 170 200 188 170 200 188 170 197 184 165 197 184 165 197 184 165 197 184 165 185 168 147 185 168 147 185 168 147 188 171 148 188 171 148 188 171 148 201 185 163 201 185 163 201 185 163 201 185 161 201 185 161 201 185 161 193 173 148 193 173 148 193 173 148 187 167 145 187 167 145 187 167 145 187 167 145 187 169 149 187 169 149 187 169 149 174 152 128 174 152 128 174 152 128 160 133 110 160 133 110 160 133 110 142 113 91 142 113 91 142 113 91 129 95 76 129 95 76 129 95 76 129 95 76 121 84 66 121 84 66 121 84 66 123 87 69 123 87 69 123 87 69 126 92 78 126 92 78 126 92 78 127 93 80 127 93 80 127 93 80 133 101 90 133 101 90 133 101 90 130 95 84 130 95 84 
192 177 157 192 177 157 192 177 157 199 186 168 199 186 168 199 186 168 200 186 167 200 186 167 200 186 167 200 186 167 193 176 156 193 176 156 193 176 156 187 168 145 187 168 145 187 168 145 196 178 157 196 178 157 196 178 157 203 187 165 203 187 165 203 187 165 198 180 155 198 180 155 198 180 155 190 169 145 190 169 145 190 169 145 190 169 145 192 172 152 192 172 152 192 172 152 184 164 143 184 164 143 184 164 143 169 144 120 169 144 120 169 144 120 152 124 102 152 124 102 152 124 102 134 101 82 134 101 82 134 101 82 134 101 82 125 89 72 125 89 72 125 89 72 126 89 72 126 89 72 126 89 72 131 95 79 131 95 79 131 95 79 129 94 80 129 94 80 129 94 80 127 90 77 127 90 77 127 90 77 127 89 74 127 89 74 
192 177 157 192 177 157 192 177 157 199 186 168 199 186 168 199 186 168 200 186 167 200 186 167 200 186 167 200 186 167 193 176 156 193 176 156 193 176 156 187 168 145 187 168 145 187 168 145 196 178 157 196 178 157 196 178 157 203 187 165 203 187 165 203 187 165 198 180 155 198 180 155 198 180 155 190 169 145 190 169 145 190 169 145 190 169 145 192 172 152 192 172 152 192 172 152 184 164 143 184 164 143 184 164 143 169 144 120 169 144 120 169 144 120 152 124 102 152 124 102 152 124 102 134 101 82 134 101 82 134 101 82 134 101 82 125 89 72 125 89 72 125 89 72 126 89 72 126 89 72 126 89 72 131 95 79 131 95 79 131 95 79 129 94 80 129 94 80 129 94 80 127 90 77 127 90 77 127 90 77 127 89 74 127 89 74 
192 177 157 192 177 157 192 177 157 199 186 168 199 186 168 199 186 168 200 186 167 200 186 167 200 186 167 200 186 167 193 176 156 193 176 156 193 176 156 187 168 145 187 168 145 187 168 145 196 178 157 196 178 157 196 178 157 203 187 165 203 187 165 203 187 165 198 180 155 198 180 155 198 180 155 190 169 145 190 169 145 190 169 145 190 169 145 192 172 152 192 172 152 192 172 152 184 164 143 184 164 143 184 164 143 169 144 120 169 144 120 169 144 120 152 124 102 152 124 102 152 124 102 134 101 82 134 101 82 134 101 82 134 101 82 125 89 72 125 89 72 125 89 72 126 89 72 126 89 72 126 89 72 131 95 79 131 95 79 131 95 79 129 94 80 129 94 80 129 94 80 127 90 77 127 90 77 127 90 77 127 89 74 127 89 74 
192 177 157 192 177 157 192 177 157 199 186 168 199 186 168 199 186 168 200 186 167 200 186 167 200 186 167 200 186 167 193 176 156 193 176 156 193 176 156 187 168 145 187 168 145 187 168 145 196 178 157 196 178 157 196 178 157 203 187 165 203 187 165 203 187 165 198 180 155 198 180 155 198 180 155 190 169 145 190 169 145 190 169 145 190 169 145 192 172 152 192 172 152 192 172 152 184 164 143 184 164 143 184 164 143 169 144 120 169 144 120 169 144 120 152 124 102 152 124 102 152 124 102 134 101 82 134 101 82 134 101 82 134 101 82 125 89 72 125 89 72 125 89 72 126 89 72 126 89 72 126 89 72 131 95 79 131 95 79 131 95 79 129 94 80 129 94 80 129 94 80 127 90 77 127 90 77 127 90 77 127 89 74 127 89 74 
179 160 140 179 160 140 179 160 140 199 184 167 199 184 167 199 184 167 198 183 165 198 183 165 198 183 165 198 183 165 197 180 160 197 180 160 197 180 160 190 170 147 190 170 147 190 170 147 190 171 149 190 171 149 190 171 149 199 184 163 199 184 163 199 184 163 201 185 162 201 185 162 201 185 162 196 174 151 196 174 151 196 174 151 196 174 151 193 172 150 193 172 150 193 172 150 192 175 155 192 175 155 192 175 155 179 157 135 179 157 135 179 157 135 167 140 118 167 140 118 167 140 118 143 113 92 143 113 92 143 113 92 143 113 92 131 95 77 131 95 77 131 95 77 123 85 69 123 85 69 123 85 69 123 85 67 123 85 67 123 85 67 125 86 69 125 86 69 125 86 69 119 80 66 119 80 66 119 80 66 112 70 54 112 70 54 
179 160 140 179 160 140 179 160 140 199 184 167 199 184 167 199 184 167 198 183 165 198 183 165 198 183 165 198 183 165 197 180 160 197 180 160 197 180 160 190 170 147 190 170 147 190 170 147 190 171 149 190 171 149 190 171 149 199 184 163 199 184 163 199 184 163 201 185 162 201 185 162 201 185 162 196 174 151 196 174 151 196 174 151 196 174 151 193 172 150 193 172 150 193 172 150 192 175 155 192 175 155 192 175 155 179 157 135 179 157 135 179 157 135 167 140 118 167 140 118 167 140 118 143 113 92 143 113 92 143 113 92 143 113 92 131 95 77 131 95 77 131 95 77 123 85 69 123 85 69 123 85 69 123 85 67 123 85 67 123 85 67 125 86 69 125 86 69 125 86 69 119 80 66 119 80 66 119 80 66 112 70 54 112 70 54 
179 160 140 179 160 140 179 160 140 199 184 167 199 184 167 199 184 167 198 183 165 198 183 165 198 183 165 198 183 165 197 180 160 197 180 160 197 180 160 190 170 147 190 170 147 190 170 147 190 171 149 190 171 149 190 171 149 199 184 163 199 184 163 199 184 163 201 185 162 201 185 162 201 185 162 196 174 151 196 174 151 196 174 151 196 174 151 193 172 150 193 172 150 193 172 150 192 175 155 192 175 155 192 175 155 179 157 135 179 157 135 179 157 135 167 140 118 167 140 118 167 140 118 143 113 92 143 113 92 143 113 92 143 113 92 131 95 77 131 95 77 131 95 77 123 85 69 123 85 69 123 85 69 123 85 67 123 85 67 123 85 67 125 86 69 125 86 69 125 86 69 119 80 66 119 80 66 119 80 66 112 70 54 112 70 54 
172 150 129 172 150 129 172 150 129 192 175 157 192 175 157 192 175 157 199 185 167 199 185 167 199 185 167 199 185 167 198 181 161 198 181 161 198 181 161 195 176 154 195 176 154 195 176 154 191 171 148 191 171 148 191 171 148 196 177 154 196 177 154 196 177 154 202 186 163 202 186 163 202 186 163 200 182 158 200 182 158 200 182 158 200 182 158 192 173 148 192 173 148 192 173 148 192 175 153 192 175 153 192 175 153 184 164 144 184 164 144 184 164 144 168 143 120 168 143 120 168 143 120 149 120 98 149 120 98 149 120 98 149 120 98 130 93 74 130 93 74 130 93 74 123 83 66 123 83 66 123 83 66 120 78 61 120 78 61 120 78 61 119 77 61 119 77 61 119 77 61 122 84 67 122 84 67 122 84 67 118 78 63 118 78 63 
172 150 129 172 150 129 172 150 129 192 175 157 192 175 157 192 175 157 199 185 167 199 185 167 199 185 167 199 185 167 198 181 161 198 181 161 198 181 161 195 176 154 195 176 154 195 176 154 191 171 148 191 171 148 191 171 148 196 177 154 196 177 154 196 177 154 202 186 163 202 186 163 202 186 163 200 182 158 200 182 158 200 182 158 200 182 158 192 173 148 192 173 148 192 173 148 192 175 153 192 175 153 192 175 153 184 164 144 184 164 144 184 164 144 168 143 120 168 143 120 168 143 120 149 120 98 149 120 98 149 120 98 149 120 98 130 93 74 130 93 74 130 93 74 123 83 66 123 83 66 123 83 66 120 78 61 120 78 61 120 78 61 119 77 61 119 77 61 119 77 61 122 84 67 122 84 67 122 84 67 118 78 63 118 78 63 
172 150 129 172 150 129 172 150 129 192 175 157 192 175 157 192 175 157 199 185 167 199 185 167 199 185 167 199 185 167 198 181 161 198 181 161 198 181 161 195 176 154 195 176 154 195 176 154 191 171 148 191 171 148 191 171 148 196 177 154 196 177 154 196 177 154 202 186 163 202 186 163 202 186 163 200 182 158 200 182 158 200 182 158 200 182 158 192 173 148 192 173 148 192 173 148 192 175 153 192 175 153 192 175 153 184 164 144 184 164 144 184 164 144 168 143 120 168 143 120 168 143 120 149 120 98 149 120 98 149 120 98 149 120 98 130 93 74 130 93 74 130 93 74 123 83 66 123 83 66 123 83 66 120 78 61 120 78 61 120 78 61 119 77 61 119 77 61 119 77 61 122 84 67 122 84 67 122 84 67 118 78 63 118 78 63 
180 158 139 180 158 139 180 158 139 183 163 144 183 163 144 183 163 144 198 181 163 198 181 163 198 181 163 198 181 163 199 184 164 199 184 164 199 184 164 198 180 160 198 180 160 198 180 160 190 169 145 190 169 145 190 169 145 189 168 145 189 168 145 189 168 145 200 184 162 200 184 162 200 184 162 203 187 163 203 187 163 203 187 163 203 187 163 196 177 152 196 177 152 196 177 152 192 173 149 192 173 149 192 173 149 192 174 154 192 174 154 192 174 154 175 152 131 175 152 131 175 152 131 161 133 110 161 133 110 161 133 110 161 133 110 136 102 80 136 102 80 136 102 80 129 90 71 129 90 71 129 90 71 121 82 65 121 82 65 121 82 65 118 77 60 118 77 60 118 77 60 117 75 57 117 75 57 117 75 57 121 81 65 121 81 65 
180 158 139 180 158 139 180 158 139 183 163 144 183 163 144 183 163 144 198 181 163 198 181 163 198 181 163 198 181 163 199 184 164 199 184 164 199 184 164 198 180 160 198 180 160 198 180 160 190 169 145 190 169 145 190 169 145 189 168 145 189 168 145 189 168 145 200 184 162 200 184 162 200 184 162 203 187 163 203 187 163 203 187 163 203 187 163 196 177 152 196 177 152 196 177 152 192 173 149 192 173 149 192 173 149 192 174 154 192 174 154 192 174 154 175 152 131 175 152 131 175 152 131 161 133 110 161 133 110 161 133 110 161 133 110 136 102 80 136 102 80 136 102 80 129 90 71 129 90 71 129 90 71 121 82 65 121 82 65 121 82 65 118 77 60 118 77 60 118 77 60 117 75 57 117 75 57 117 75 57 121 81 65 121 81 65 
180 158 139 180 158 139 180 158 139 183 163 144 183 163 144 183 163 144 198 181 163 198 181 163 198 181 163 198 181 163 199 184 164 199 184 164 199 184 164 198 180 160 198 180 160 198 180 160 190 169 145 190 169 145 190 169 145 189 168 145 189 168 145 189 168 145 200 184 162 200 184 162 200 184 162 203 187 163 203 187 163 203 187 163 203 187 163 196 177 152 196 177 152 196 177 152 192 173 149 192 173 149 192 173 149 192 174 154 192 174 154 192 174 154 175 152 131 175 152 131 175 152 131 161 133 110 161 133 110 161 133 110 161 133 110 136 102 80 136 102 80 136 102 80 129 90 71 129 90 71 129 90 71 121 82 65 121 82 65 121 82 65 118 77 60 118 77 60 118 77 60 117 75 57 117 75 57 117 75 57 121 81 65 121 81 65 
188 170 151 188 170 151 188 170 151 178 156 135 178 156 135 178 156 135 186 167 147 186 167 147 186 167 147 186 167 147 198 184 166 198 184 166 198 184 166 197 182 162 197 182 162 197 182 162 192 173 150 192 173 150 192 173 150 186 165 141 186 165 141 186 165 141 196 177 156 196 177 156 196 177 156 205 189 167 205 189 167 205 189 167 205 189 167 200 182 158 200 182 158 200 182 158 192 175 149 192 175 149 192 175 149 194 176 156 194 176 156 194 176 156 184 164 145 184 164 145 184 164 145 168 142 120 168 142 120 168 142 120 168 142 120 148 118 96 148 118 96 148 118 96 131 99 78 131 99 78 131 99 78 127 93 75 127 93 75 127 93 75 120 80 63 120 80 63 120 80 63 116 73 56 116 73 56 116 73 56 118 75 58 118 75 58 
188 170 151 188 170 151 188 170 151 178 156 135 178 156 135 178 156 135 186 167 147 186 167 147 186 167 147 186 167 147 198 184 166 198 184 166 198 184 166 197 182 162 197 182 162 197 182 162 192 173 150 192 173 150 192 173 150 186 165 141 186 165 141 186 165 141 196 177 156 196 177 156 196 177 156 205 189 167 205 189 167 205 189 167 205 189 167 200 182 158 200 182 158 200 182 158 192 175 149 192 175 149 192 175 149 194 176 156 194 176 156 194 176 156 184 164 145 184 164 145 184 164 145 168 142 120 168 142 120 168 142 120 168 142 120 148 118 96 148 118 96 148 118 96 131 99 78 131 99 78 131 99 78 127 93 75 127 93 75 127 93 75 120 80 63 120 80 63 120 80 63 116 73 56 116 73 56 116 73 56 118 75 58 118 75 58 
188 170 151 188 170 151 188 170 151 178 156 135 178 156 135 178 156 135 186 167 147 186 167 147 186 167 147 186 167 147 198 184 166 198 184 166 198 184 166 197 182 162 197 182 162 197 182 162 192 173 150 192 173 150 192 173 150 186 165 141 186 165 141 186 165 141 196 177 156 196 177 156 196 177 156 205 189 167 205 189 167 205 189 167 205 189 167 200 182 158 200 182 158 200 182 158 192 175 149 192 175 149 192 175 149 194 176 156 194 176 156 194 176 156 184 164 145 184 164 145 184 164 145 168 142 120 168 142 120 168 142 120 168 142 120 148 118 96 148 118 96 148 118 96 131 99 78 131 99 78 131 99 78 127 93 75 127 93 75 127 93 75 120 80 63 120 80 63 120 80 63 116 73 56 116 73 56 116 73 56 118 75 58 118 75 58 
191 176 160 191 176 160 191 176 160 178 157 136 178 157 136 178 157 136 174 151 130 174 151 130 174 151 130 174 151 130 191 174 155 191 174 155 191 174 155 199 184 163 199 184 163 199 184 163 195 177 155 195 177 155 195 177 155 188 167 142 188 167 142 188 167 142 190 169 146 190 169 146 190 169 146 203 186 165 203 186 165 203 186 165 203 186 165 201 186 162 201 186 162 201 186 162 193 176 150 193 176 150 193 176 150 194 176 153 194 176 153 194 176 153 190 172 154 190 172 154 190 172 154 174 152 131 174 152 131 174 152 131 174 152 131 160 132 109 160 132 109 160 132 109 140 109 87 140 109 87 140 109 87 136 104 85 136 104 85 136 104 85 125 88 72 125 88 72 125 88 72 120 77 63 120 77 63 120 77 63 117 74 58 117 74 58 
191 176 160 191 176 160 191 176 160 178 157 136 178 157 136 178 157 136 174 151 130 174 151 130 174 151 130 174 151 130 191 174 155 191 174 155 191 174 155 199 184 163 199 184 163 199 184 163 195 177 155 195 177 155 195 177 155 188 167 142 188 167 142 188 167 142 190 169 146 190 169 146 190 169 146 203 186 165 203 186 165 203 186 165 203 186 165 201 186 162 201 186 162 201 186 162 193 176 150 193 176 150 193 176 150 194 176 153 194 176 153 194 176 153 190 172 154 190 172 154 190 172 154 174 152 131 174 152 131 174 152 131 174 152 131 160 132 109 160 132 109 160 132 109 140 109 87 140 109 87 140 109 87 136 104 85 136 104 85 136 104 85 125 88 72 125 88 72 125 88 72 120 77 63 120 77 63 120 77 63 117 74 58 117 74 58 
191 176 160 191 176 160 191 176 160 178 157 136 178 157 136 178 157 136 174 151 130 174 151 130 174 151 130 174 151 130 191 174 155 191 174 155 191 174 155 199 184 163 199 184 163 199 184 163 195 177 155 195 177 155 195 177 155 188 167 142 188 167 142 188 167 142 190 169 146 190 169 146 190 169 146 203 186 165 203 186 165 203 186 165 203 186 165 201 186 162 201 186 162 201 186 162 193 176 150 193 176 150 193 176 150 194 176 153 194 176 153 194 176 153 190 172 154 190 172 154 190 172 154 174 152 131 174 152 131 174 152 131 174 152 131 160 132 109 160 132 109 160 132 109 140 109 87 140 109 87 140 109 87 136 104 85 136 104 85 136 104 85 125 88 72 125 88 72 125 88 72 120 77 63 120 77 63 120 77 63 117 74 58 117 74 58 
191 176 160 191 176 160 191 176 160 178 157 136 178 157 136 178 157 136 174 151 130 174 151 130 174 151 130 174 151 130 191 174 155 191 174 155 191 174 155 199 184 163 199 184 163 199 184 163 195 177 155 195 177 155 195 177 155 188 167 142 188 167 142 188 167 142 190 169 146 190 169 146 190 169 146 203 186 165 203 186 165 203 186 165 203 186 165 201 186 162 201 186 162 201 186 162 193 176 150 193 176 150 193 176 150 194 176 153 194 176 153 194 176 153 190 172 154 190 172 154 190 172 154 174 152 131 174 152 131 174 152 131 174 152 131 160 132 109 160 132 109 160 132 109 140 109 87 140 109 87 140 109 87 136 104 85 136 104 85 136 104 85 125 88 72 125 88 72 125 88 72 120 77 63 120 77 63 120 77 63 117 74 58 117 74 58 
194 180 166 194 180 166 194 180 166 187 168 148 187 168 148 187 168 148 174 149 128 174 149 128 174 149 128 174 149 128 180 158 137 180 158 137 180 158 137 196 180 159 196 180 159 196 180 159 197 181 160 197 181 160 197 181 160 192 173 149 192 173 149 192 173 149 186 165 140 186 165 140 186 165 140 195 177 154 195 177 154 195 177 154 195 177 154 203 186 165 203 186 165 203 186 165 196 179 153 196 179 153 196 179 153 194 175 149 194 175 149 194 175 149 193 175 155 193 175 155 193 175 155 182 163 143 182 163 143 182 163 143 182 163 143 165 140 116 165 140 116 165 140 116 155 124 99 155 124 99 155 124 99 142 109 87 142 109 87 142 109 87 137 104 87 137 104 87 137 104 87 128 90 75 128 90 75 128 90 75 120 79 62 120 79 62 
194 180 166 194 180 166 194 180 166 187 168 148 187 168 148 187 168 148 174 149 128 174 149 128 174 149 128 174 149 128 180 158 137 180 158 137 180 158 137 196 180 159 196 180 159 196 180 159 197 181 160 197 181 160 197 181 160 192 173 149 192 173 149 192 173 149 186 165 140 186 165 140 186 165 140 195 177 154 195 177 154 195 177 154 195 177 154 203 186 165 203 186 165 203 186 165 196 179 153 196 179 153 196 179 153 194 175 149 194 175 149 194 175 149 193 175 155 193 175 155 193 175 155 182 163 143 182 163 143 182 163 143 182 163 143 165 140 116 165 140 116 165 140 116 155 124 99 155 124 99 155 124 99 142 109 87 142 109 87 142 109 87 137 104 87 137 104 87 137 104 87 128 90 75 128 90 75 128 90 75 120 79 62 120 79 62 
194 180 166 194 180 166 194 180 166 187 168 148 187 168 148 187 168 148 174 149 128 174 149 128 174 149 128 174 149 128 180 158 137 180 158 137 180 158 137 196 180 159 196 180 159 196 180 159 197 181 160 197 181 160 197 181 160 192 173 149 192 173 149 192 173 149 186 165 140 186 165 140 186 165 140 195 177 154 195 177 154 195 177 154 195 177 154 203 186 165 203 186 165 203 186 165 196 179 153 196 179 153 196 179 153 194 175 149 194 175 149 194 175 149 193 175 155 193 175 155 193 175 155 182 163 143 182 163 143 182 163 143 182 163 143 165 140 116 165 140 116 165 140 116 155 124 99 155 124 99 155 124 99 142 109 87 142 109 87 142 109 87 137 104 87 137 104 87 137 104 87 128 90 75 128 90 75 128 90 75 120 79 62 120 79 62 
196 182 167 196 182 167 196 182 167 191 175 156 191 175 156 191 175 156 184 162 143 184 162 143 184 162 143 184 162 143 173 150 130 173 150 130 173 150 130 186 166 145 186 166 145 186 166 145 198 182 161 198 182 161 198 182 161 196 179 158 196 179 158 196 179 158 187 167 143 187 167 143 187 167 143 189 169 145 189 169 145 189 169 145 189 169 145 202 184 164 202 184 164 202 184 164 200 183 161 200 183 161 200 183 161 194 174 149 194 174 149 194 174 149 195 174 151 195 174 151 195 174 151 191 171 150 191 171 150 191 171 150 191 171 150 176 152 129 176 152 129 176 152 129 165 137 110 165 137 110 165 137 110 146 111 88 146 111 88 146 111 88 145 113 93 145 113 93 145 113 93 142 110 94 142 110 94 142 110 94 128 90 72 128 90 72 
196 182 167 196 182 167 196 182 167 191 175 156 191 175 156 191 175 156 184 162 143 184 162 143 184 162 143 184 162 143 173 150 130 173 150 130 173 150 130 186 166 145 186 166 145 186 166 145 198 182 161 198 182 161 198 182 161 196 179 158 196 179 158 196 179 158 187 167 143 187 167 143 187 167 143 189 169 145 189 169 145 189 169 145 189 169 145 202 184 164 202 184 164 202 184 164 200 183 161 200 183 161 200 183 161 194 174 149 194 174 149 194 174 149 195 174 151 195 174 151 195 174 151 191 171 150 191 171 150 191 171 150 191 171 150 176 152 129 176 152 129 176 152 129 165 137 110 165 137 110 165 137 110 146 111 88 146 111 88 146 111 88 145 113 93 145 113 93 145 113 93 142 110 94 142 110 94 142 110 94 128 90 72 128 90 72 
196 182 167 196 182 167 196 182 167 191 175 156 191 175 156 191 175 156 184 162 143 184 162 143 184 162 143 184 162 143 173 150 130 173 150 130 173 150 130 186 166 145 186 166 145 186 166 145 198 182 161 198 182 161 198 182 161 196 179 158 196 179 158 196 179 158 187 167 143 187 167 143 187 167 143 189 169 145 189 169 145 189 169 145 189 169 145 202 184 164 202 184 164 202 184 164 200 183 161 200 183 161 200 183 161 194 174 149 194 174 149 194 174 149 195 174 151 195 174 151 195 174 151 191 171 150 191 171 150 191 171 150 191 171 150 176 152 129 176 152 129 176 152 129 165 137 110 165 137 110 165 137 110 146 111 88 146 111 88 146 111 88 145 113 93 145 113 93 145 113 93 142 110 94 142 110 94 142 110 94 128 90 72 128 90 72 
197 179 162 197 179 162 197 179 162 194 178 161 194 178 161 194 178 161 192 173 154 192 173 154 192 173 154 192 173 154 177 154 134 177 154 134 177 154 134 174 151 129 174 151 129 174 151 129 193 175 154 193 175 154 193 175 154 197 181 160 197 181 160 197 181 160 191 173 150 191 173 150 191 173 150 187 165 141 187 165 141 187 165 141 187 165 141 196 176 155 196 176 155 196 176 155 201 186 163 201 186 163 201 186 163 198 178 155 198 178 155 198 178 155 195 173 150 195 173 150 195 173 150 195 174 152 195 174 152 195 174 152 195 174 152 186 163 140 186 163 140 186 163 140 172 147 122 172 147 122 172 147 122 154 124 99 154 124 99 154 124 99 145 113 90 145 113 90 145 113 90 152 122 105 152 122 105 152 122 105 138 100 84 138 100 84 
197 179 162 197 179 162 197 179 162 194 178 161 194 178 161 194 178 161 192 173 154 192 173 154 192 173 154 192 173 154 177 154 134 177 154 134 177 154 134 174 151 129 174 151 129 174 151 129 193 175 154 193 175 154 193 175 154 197 181 160 197 181 160 197 181 160 191 173 150 191 173 150 191 173 150 187 165 141 187 165 141 187 165 141 187 165 141 196 176 155 196 176 155 196 176 155 201 186 163 201 186 163 201 186 163 198 178 155 198 178 155 198 178 155 195 173 150 195 173 150 195 173 150 195 174 152 195 174 152 195 174 152 195 174 152 186 163 140 186 163 140 186 163 140 172 147 122 172 147 122 172 147 122 154 124 99 154 124 99 154 124 99 145 113 90 145 113 90 145 113 90 152 122 105 152 122 105 152 122 105 138 100 84 138 100 84 
197 179 162 197 179 162 197 179 162 194 178 161 194 178 161 194 178 161 192 173 154 192 173 154 192 173 154 192 173 154 177 154 134 177 154 134 177 154 134 174 151 129 174 151 129 174 151 129 193 175 154 193 175 154 193 175 154 197 181 160 197 181 160 197 181 160 191 173 150 191 173 150 191 173 150 187 165 141 187 165 141 187 165 141 187 165 141 196 176 155 196 176 155 196 176 155 201 186 163 201 186 163 201 186 163 198 178 155 198 178 155 198 178 155 195 173 150 195 173 150 195 173 150 195 174 152 195 174 152 195 174 152 195 174 152 186 163 140 186 163 140 186 163 140 172 147 122 172 147 122 172 147 122 154 124 99 154 124 99 154 124 99 145 113 90 145 113 90 145 113 90 152 122 105 152 122 105 152 122 105 138 100 84 138 100 84 
185 162 140 185 162 140 185 162 140 196 180 162 196 180 162 196 180 162 193 177 159 193 177 159 193 177 159 193 177 159 187 167 145 187 167 145 187 167 145 175 150 128 175 150 128 175 150 128 184 163 142 184 163 142 184 163 142 196 180 159 196 180 159 196 180 159 195 178 156 195 178 156 195 178 156 187 167 143 187 167 143 187 167 143 187 167 143 189 169 145 189 169 145 189 169 145 198 182 159 198 182 159 198 182 159 201 182 160 201 182 160 201 182 160 197 176 152 197 176 152 197 176 152 196 175 153 196 175 153 196 175 153 196 175 153 189 169 147 189 169 147 189 169 147 177 155 131 177 155 131 177 155 131 164 138 112 164 138 112 164 138 112 146 114 90 146 114 90 146 114 90 151 121 100 151 121 100 151 121 100 148 115 100 148 115 100 
185 162 140 185 162 140 185 162 140 196 180 162 196 180 162 196 180 162 193 177 159 193 177 159 193 177 159 193 177 159 187 167 145 187 167 145 187 167 145 175 150 128 175 150 128 175 150 128 184 163 142 184 163 142 184 163 142 196 180 159 196 180 159 196 180 159 195 178 156 195 178 156 195 178 156 187 167 143 187 167 143 187 167 143 187 167 143 189 169 145 189 169 145 189 169 145 198 182 159 198 182 159 198 182 159 201 182 160 201 182 160 201 182 160 197 176 152 197 176 152 197 176 152 196 175 153 196 175 153 196 175 153 196 175 153 189 169 147 189 169 147 189 169 147 177 155 131 177 155 131 177 155 131 164 138 112 164 138 112 164 138 112 146 114 90 146 114 90 146 114 90 151 121 100 151 121 100 151 121 100 148 115 100 148 115 100 
185 162 140 185 162 140 185 162 140 196 180 162 196 180 162 196 180 162 193 177 159 193 177 159 193 177 159 193 177 159 187 167 145 187 167 145 187 167 145 175 150 128 175 150 128 175 150 128 184 163 142 184 163 142 184 163 142 196 180 159 196 180 159 196 180 159 195 178 156 195 178 156 195 178 156 187 167 143 187 167 143 187 167 143 187 167 143 189 169 145 189 169 145 189 169 145 198 182 159 198 182 159 198 182 159 201 182 160 201 182 160 201 182 160 197 176 152 197 176 152 197 176 152 196 175 153 196 175 153 196 175 153 196 175 153 189 169 147 189 169 147 189 169 147 177 155 131 177 155 131 177 155 131 164 138 112 164 138 112 164 138 112 146 114 90 146 114 90 146 114 90 151 121 100 151 121 100 151 121 100 148 115 100 148 115 100 
172 143 116 172 143 116 172 143 116 190 170 150 190 170 150 190 170 150 196 181 163 196 181 163 196 181 163 196 181 163 195 177 157 195 177 157 195 177 157 184 163 142 184 163 142 184 163 142 178 157 135 178 157 135 178 157 135 193 174 152 193 174 152 193 174 152 197 180 159 197 180 159 197 180 159 191 173 149 191 173 149 191 173 149 191 173 149 186 165 138 186 165 138 186 165 138 192 173 148 192 173 148 192 173 148 201 184 161 201 184 161 201 184 161 198 181 157 198 181 157 198 181 157 198 178 156 198 178 156 198 178 156 198 178 156 193 174 152 193 174 152 193 174 152 183 161 138 183 161 138 183 161 138 171 146 122 171 146 122 171 146 122 155 125 100 155 125 100 155 125 100 146 111 88 146 111 88 146 111 88 156 124 104 156 124 104 
172 143 116 172 143 116 172 143 116 190 170 150 190 170 150 190 170 150 196 181 163 196 181 163 196 181 163 196 181 163 195 177 157 195 177 157 195 177 157 184 163 142 184 163 142 184 163 142 178 157 135 178 157 135 178 157 135 193 174 152 193 174 152 193 174 152 197 180 159 197 180 159 197 180 159 191 173 149 191 173 149 191 173 149 191 173 149 186 165 138 186 165 138 186 165 138 192 173 148 192 173 148 192 173 148 201 184 161 201 184 161 201 184 161 198 181 157 198 181 157 198 181 157 198 178 156 198 178 156 198 178 156 198 178 156 193 174 152 193 174 152 193 174 152 183 161 138 183 161 138 183 161 138 171 146 122 171 146 122 171 146 122 155 125 100 155 125 100 155 125 100 146 111 88 146 111 88 146 111 88 156 124 104 156 124 104 
172 143 116 172 143 116 172 143 116 190 170 150 190 170 150 190 170 150 196 181 163 196 181 163 196 181 163 196 181 163 195 177 157 195 177 157 195 177 157 184 163 142 184 163 142 184 163 142 178 157 135 178 157 135 178 157 135 193 174 152 193 174 152 193 174 152 197 180 159 197 180 159 197 180 159 191 173 149 191 173 149 191 173 149 191 173 149 186 165 138 186 165 138 186 165 138 192 173 148 192 173 148 192 173 148 201 184 161 201 184 161 201 184 161 198 181 157 198 181 157 198 181 157 198 178 156 198 178 156 198 178 156 198 178 156 193 174 152 193 174 152 193 174 152 183 161 138 183 161 138 183 161 138 171 146 122 171 146 122 171 146 122 155 125 100 155 125 100 155 125 100 146 111 88 146 111 88 146 111 88 156 124 104 156 124 104 
165 135 108 165 135 108 165 135 108 178 154 130 178 154 130 178 154 130 198 182 163 198 182 163 198 182 163 198 182 163 200 184 167 200 184 167 200 184 167 193 177 158 193 177 158 193 177 158 180 159 138 180 159 138 180 159 138 186 166 145 186 166 145 186 166 145 197 180 159 197 180 159 197 180 159 193 177 155 193 177 155 193 177 155 193 177 155 186 166 140 186 166 140 186 166 140 188 166 141 188 166 141 188 166 141 199 181 159 199 181 159 199 181 159 201 184 160 201 184 160 201 184 160 199 180 157 199 180 157 199 180 157 199 180 157 197 178 155 197 178 155 197 178 155 189 167 144 189 167 144 189 167 144 178 153 128 178 153 128 178 153 128 166 139 115 166 139 115 166 139 115 150 116 93 150 116 93 150 116 93 153 120 98 153 120 98 
165 135 108 165 135 108 165 135 108 178 154 130 178 154 130 178 154 130 198 182 163 198 182 163 198 182 163 198 182 163 200 184 167 200 184 167 200 184 167 193 177 158 193 177 158 193 177 158 180 159 138 180 159 138 180 159 138 186 166 145 186 166 145 186 166 145 197 180 159 197 180 159 197 180 159 193 177 155 193 177 155 193 177 155 193 177 155 186 166 140 186 166 140 186 166 140 188 166 141 188 166 141 188 166 141 199 181 159 199 181 159 199 181 159 201 184 160 201 184 160 201 184 160 199 180 157 199 180 157 199 180 157 199 180 157 197 178 155 197 178 155 197 178 155 189 167 144 189 167 144 189 167 144 178 153 128 178 153 128 178 153 128 166 139 115 166 139 115 166 139 115 150 116 93 150 116 93 150 116 93 153 120 98 153 120 98 
165 135 108 165 135 108 165 135 108 178 154 130 178 154 130 178 154 130 198 182 163 198 182 163 198 182 163 198 182 163 200 184 167 200 184 167 200 184 167 193 177 158 193 177 158 193 177 158 180 159 138 180 159 138 180 159 138 186 166 145 186 166 145 186 166 145 197 180 159 197 180 159 197 180 159 193 177 155 193 177 155 193 177 155 193 177 155 186 166 140 186 166 140 186 166 140 188 166 141 188 166 141 188 166 141 199 181 159 199 181 159 199 181 159 201 184 160 201 184 160 201 184 160 199 180 157 199 180 157 199 180 157 199 180 157 197 178 155 197 178 155 197 178 155 189 167 144 189 167 144 189 167 144 178 153 128 178 153 128 178 153 128 166 139 115 166 139 115 166 139 115 150 116 93 150 116 93 150 116 93 153 120 98 153 120 98 
165 135 108 165 135 108 165 135 108 178 154 130 178 154 130 178 154 130 198 182 163 198 182 163 198 182 163 198 182 163 200 184 167 200 184 167 200 184 167 193 177 158 193 177 158 193 177 158 180 159 138 180 159 138 180 159 138 186 166 145 186 166 145 186 166 145 197 180 159 197 180 159 197 180 159 193 177 155 193 177 155 193 177 155 193 177 155 186 166 140 186 166 140 186 166 140 188 166 141 188 166 141 188 166 141 199 181 159 199 181 159 199 181 159 201 184 160 201 184 160 201 184 160 199 180 157 199 180 157 199 180 157 199 180 157 197 178 155 197 178 155 197 178 155 189 167 144 189 167 144 189 167 144 178 153 128 178 153 128 178 153 128 166 139 115 166 139 115 166 139 115 150 116 93 150 116 93 150 116 93 153 120 98 153 120 98 
161 128 103 161 128 103 161 128 103 169 141 114 169 141 114 169 141 114 190 168 146 190 168 146 190 168 146 190 168 146 203 186 170 203 186 170 203 186 170 201 185 170 201 185 170 201 185 170 190 173 156 190 173 156 190 173 156 181 160 141 181 160 141 181 160 141 192 174 154 192 174 154 192 174 154 195 178 159 195 178 159 195 178 159 195 178 159 190 170 147 190 170 147 190 170 147 187 163 137 187 163 137 187 163 137 193 173 148 193 173 148 193 173 148 202 186 162 202 186 162 202 186 162 201 183 159 201 183 159 201 183 159 201 183 159 200 180 157 200 180 157 200 180 157 194 174 150 194 174 150 194 174 150 183 162 137 183 162 137 183 162 137 175 150 124 175 150 124 175 150 124 162 132 107 162 132 107 162 132 107 150 118 93 150 118 93 
161 128 103 161 128 103 161 128 103 169 141 114 169 141 114 169 141 114 190 168 146 190 168 146 190 168 146 190 168 146 203 186 170 203 186 170 203 186 170 201 185 170 201 185 170 201 185 170 190 173 156 190 173 156 190 173 156 181 160 141 181 160 141 181 160 141 192 174 154 192 174 154 192 174 154 195 178 159 195 178 159 195 178 159 195 178 159 190 170 147 190 170 147 190 170 147 187 163 137 187 163 137 187 163 137 193 173 148 193 173 148 193 173 148 202 186 162 202 186 162 202 186 162 201 183 159 201 183 159 201 183 159 201 183 159 200 180 157 200 180 157 200 180 157 194 174 150 194 174 150 194 174 150 183 162 137 183 162 137 183 162 137 175 150 124 175 150 124 175 150 124 162 132 107 162 132 107 162 132 107 150 118 93 150 118 93 
161 128 103 161 128 103 161 128 103 169 141 114 169 141 114 169 141 114 190 168 146 190 168 146 190 168 146 190 168 146 203 186 170 203 186 170 203 186 170 201 185 170 201 185 170 201 185 170 190 173 156 190 173 156 190 173 156 181 160 141 181 160 141 181 160 141 192 174 154 192 174 154 192 174 154 195 178 159 195 178 159 195 178 159 195 178 159 190 170 147 190 170 147 190 170 147 187 163 137 187 163 137 187 163 137 193 173 148 193 173 148 193 173 148 202 186 162 202 186 162 202 186 162 201 183 159 201 183 159 201 183 159 201 183 159 200 180 157 200 180 157 200 180 157 194 174 150 194 174 150 194 174 150 183 162 137 183 162 137 183 162 137 175 150 124 175 150 124 175 150 124 162 132 107 162 132 107 162 132 107 150 118 93 150 118 93 
150 114 89 150 114 89 150 114 89 164 132 103 164 132 103 164 132 103 178 150 123 178 150 123 178 150 123 178 150 123 200 179 161 200 179 161 200 179 161 206 190 176 206 190 176 206 190 176 202 186 171 202 186 171 202 186 171 186 167 149 186 167 149 186 167 149 185 165 143 185 165 143 185 165 143 195 178 157 195 178 157 195 178 157 195 178 157 194 176 154 194 176 154 194 176 154 187 166 141 187 166 141 187 166 141 185 163 136 185 163 136 185 163 136 198 181 158 198 181 158 198 181 158 203 187 164 203 187 164 203 187 164 203 187 164 201 183 160 201 183 160 201 183 160 198 178 156 198 178 156 198 178 156 189 168 143 189 168 143 189 168 143 181 156 130 181 156 130 181 156 130 171 145 118 171 145 118 171 145 118 153 122 97 153 122 97 
150 114 89 150 114 89 150 114 89 164 132 103 164 132 103 164 132 103 178 150 123 178 150 123 178 150 123 178 150 123 200 179 161 200 179 161 200 179 161 206 190 176 206 190 176 206 190 176 202 186 171 202 186 171 202 186 171 186 167 149 186 167 149 186 167 149 185 165 143 185 165 143 185 165 143 195 178 157 195 178 157 195 178 157 195 178 157 194 176 154 194 176 154 194 176 154 187 166 141 187 166 141 187 166 141 185 163 136 185 163 136 185 163 136 198 181 158 198 181 158 198 181 158 203 187 164 203 187 164 203 187 164 203 187 164 201 183 160 201 183 160 201 183 160 198 178 156 198 178 156 198 178 156 189 168 143 189 168 143 189 168 143 181 156 130 181 156 130 181 156 130 171 145 118 171 145 118 171 145 118 153 122 97 153 122 97 
150 114 89 150 114 89 150 114 89 164 132 103 164 132 103 164 132 103 178 150 123 178 150 123 178 150 123 178 150 123 200 179 161 200 179 161 200 179 161 206 190 176 206 190 176 206 190 176 202 186 171 202 186 171 202 186 171 186 167 149 186 167 149 186 167 149 185 165 143 185 165 143 185 165 143 195 178 157 195 178 157 195 178 157 195 178 157 194 176 154 194 176 154 194 176 154 187 166 141 187 166 141 187 166 141 185 163 136 185 163 136 185 163 136 198 181 158 198 181 158 198 181 158 203 187 164 203 187 164 203 187 164 203 187 164 201 183 160 201 183 160 201 183 160 198 178 156 198 178 156 198 178 156 189 168 143 189 168 143 189 168 143 181 156 130 181 156 130 181 156 130 171 145 118 171 145 118 171 145 118 153 122 97 153 122 97 
141 103 79 141 103 79 141 103 79 157 122 93 157 122 93 157 122 93 170 139 110 170 139 110 170 139 110 170 139 110 189 164 142 189 164 142 189 164 142 208 192 178 208 192 178 208 192 178 205 191 176 205 191 176 205 191 176 195 178 161 195 178 161 195 178 161 184 164 142 184 164 142 184 164 142 193 173 150 193 173 150 193 173 150 193 173 150 197 178 157 197 178 157 197 178 157 191 171 148 191 171 148 191 171 148 184 161 136 184 161 136 184 161 136 192 173 150 192 173 150 192 173 150 205 189 167 205 189 167 205 189 167 205 189 167 203 186 164 203 186 164 203 186 164 201 183 161 201 183 161 201 183 161 193 173 149 193 173 149 193 173 149 187 162 138 187 162 138 187 162 138 176 150 126 176 150 126 176 150 126 161 133 108 161 133 108 
141 103 79 141 103 79 141 103 79 157 122 93 157 122 93 157 122 93 170 139 110 170 139 110 170 139 110 170 139 110 189 164 142 189 164 142 189 164 142 208 192 178 208 192 178 208 192 178 205 191 176 205 191 176 205 191 176 195 178 161 195 178 161 195 178 161 184 164 142 184 164 142 184 164 142 193 173 150 193 173 150 193 173 150 193 173 150 197 178 157 197 178 157 197 178 157 191 171 148 191 171 148 191 171 148 184 161 136 184 161 136 184 161 136 192 173 150 192 173 150 192 173 150 205 189 167 205 189 167 205 189 167 205 189 167 203 186 164 203 186 164 203 186 164 201 183 161 201 183 161 201 183 161 193 173 149 193 173 149 193 173 149 187 162 138 187 162 138 187 162 138 176 150 126 176 150 126 176 150 126 161 133 108 161 133 108 
141 103 79 141 103 79 141 103 79 157 122 93 157 122 93 157 122 93 170 139 110 170 139 110 170 139 110 170 139 110 189 164 142 189 164 142 189 164 142 208 192 178 208 192 178 208 192 178 205 191 176 205 191 176 205 191 176 195 178 161 195 178 161 195 178 161 184 164 142 184 164 142 184 164 142 193 173 150 193 173 150 193 173 150 193 173 150 197 178 157 197 178 157 197 178 157 191 171 148 191 171 148 191 171 148 184 161 136 184 161 136 184 161 136 192 173 150 192 173 150 192 173 150 205 189 167 205 189 167 205 189 167 205 189 167 203 186 164 203 186 164 203 186 164 201 183 161 201 183 161 201 183 161 193 173 149 193 173 149 193 173 149 187 162 138 187 162 138 187 162 138 176 150 126 176 150 126 176 150 126 161 133 108 161 133 108 
140 102 81 140 102 81 140 102 81 148 108 83 148 108 83 148 108 83 163 128 100 163 128 100 163 128 100 163 128 100 174 146 120 174 146 120 174 146 120 198 181 162 198 181 162 198 181 162 209 197 183 209 197 183 209 197 183 199 183 167 199 183 167 199 183 167 187 167 146 187 167 146 187 167 146 186 164 142 186 164 142 186 164 142 186 164 142 195 176 155 195 176 155 195 176 155 195 176 155 195 176 155 195 176 155 188 166 142 188 166 142 188 166 142 188 165 141 188 165 141 188 165 141 201 182 160 201 182 160 201 182 160 201 182 160 206 190 168 206 190 168 206 190 168 201 184 162 201 184 162 201 184 162 197 178 157 197 178 157 197 178 157 190 167 144 190 167 144 190 167 144 183 157 134 183 157 134 183 157 134 171 143 120 171 143 120 
140 102 81 140 102 81 140 102 81 148 108 83 148 108 83 148 108 83 163 128 100 163 128 100 163 128 100 163 128 100 174 146 120 174 146 120 174 146 120 198 181 162 198 181 162 198 181 162 209 197 183 209 197 183 209 197 183 199 183 167 199 183 167 199 183 167 187 167 146 187 167 146 187 167 146 186 164 142 186 164 142 186 164 142 186 164 142 195 176 155 195 176 155 195 176 155 195 176 155 195 176 155 195 176 155 188 166 142 188 166 142 188 166 142 188 165 141 188 165 141 188 165 141 201 182 160 201 182 160 201 182 160 201 182 160 206 190 168 206 190 168 206 190 168 201 184 162 201 184 162 201 184 162 197 178 157 197 178 157 197 178 157 190 167 144 190 167 144 190 167 144 183 157 134 183 157 134 183 157 134 171 143 120 171 143 120 
140 102 81 140 102 81 140 102 81 148 108 83 148 108 83 148 108 83 163 128 100 163 128 100 163 128 100 163 128 100 174 146 120 174 146 120 174 146 120 198 181 162 198 181 162 198 181 162 209 197 183 209 197 183 209 197 183 199 183 167 199 183 167 199 183 167 187 167 146 187 167 146 187 167 146 186 164 142 186 164 142 186 164 142 186 164 142 195 176 155 195 176 155 195 176 155 195 176 155 195 176 155 195 176 155 188 166 142 188 166 142 188 166 142 188 165 141 188 165 141 188 165 141 201 182 160 201 182 160 201 182 160 201 182 160 206 190 168 206 190 168 206 190 168 201 184 162 201 184 162 201 184 162 197 178 157 197 178 157 197 178 157 190 167 144 190 167 144 190 167 144 183 157 134 183 157 134 183 157 134 171 143 120 171 143 120 
147 111 92 147 111 92 147 111 92 142 100 79 142 100 79 142 100 79 156 117 94 156 117 94 156 117 94 156 117 94 167 136 108 167 136 108 167 136 108 179 155 129 179 155 129 179 155 129 205 190 173 205 190 173 205 190 173 205 193 177 205 193 177 205 193 177 192 173 153 192 173 153 192 173 153 185 163 141 185 163 141 185 163 141 185 163 141 192 172 151 192 172 151 192 172 151 196 179 159 196 179 159 196 179 159 190 171 149 190 171 149 190 171 149 186 162 137 186 162 137 186 162 137 194 172 149 194 172 149 194 172 149 194 172 149 205 188 166 205 188 166 205 188 166 204 187 166 204 187 166 204 187 166 202 185 166 202 185 166 202 185 166 195 175 154 195 175 154 195 175 154 190 166 142 190 166 142 190 166 142 177 152 126 177 152 126 
147 111 92 147 111 92 147 111 92 142 100 79 142 100 79 142 100 79 156 117 94 156 117 94 156 117 94 156 117 94 167 136 108 167 136 108 167 136 108 179 155 129 179 155 129 179 155 129 205 190 173 205 190 173 205 190 173 205 193 177 205 193 177 205 193 177 192 173 153 192 173 153 192 173 153 185 163 141 185 163 141 185 163 141 185 163 141 192 172 151 192 172 151 192 172 151 196 179 159 196 179 159 196 179 159 190 171 149 190 171 149 190 171 149 186 162 137 186 162 137 186 162 137 194 172 149 194 172 149 194 172 149 194 172 149 205 188 166 205 188 166 205 188 166 204 187 166 204 187 166 204 187 166 202 185 166 202 185 166 202 185 166 195 175 154 195 175 154 195 175 154 190 166 142 190 166 142 190 166 142 177 152 126 177 152 126 
147 111 92 147 111 92 147 111 92 142 100 79 142 100 79 142 100 79 156 117 94 156 117 94 156 117 94 156 117 94 167 136 108 167 136 108 167 136 108 179 155 129 179 155 129 179 155 129 205 190 173 205 190 173 205 190 173 205 193 177 205 193 177 205 193 177 192 173 153 192 173 153 192 173 153 185 163 141 185 163 141 185 163 141 185 163 141 192 172 151 192 172 151 192 172 151 196 179 159 196 179 159 196 179 159 190 171 149 190 171 149 190 171 149 186 162 137 186 162 137 186 162 137 194 172 149 194 172 149 194 172 149 194 172 149 205 188 166 205 188 166 205 188 166 204 187 166 204 187 166 204 187 166 202 185 166 202 185 166 202 185 166 195 175 154 195 175 154 195 175 154 190 166 142 190 166 142 190 166 142 177 152 126 177 152 126 
